<?xml version="1.0" encoding="UTF-8"?>
<svg id="Layer_2" data-name="Layer 2" xmlns="http://www.w3.org/2000/svg" viewBox="0 0 375.86 686.6">
  <defs>
    <style>
      .cls-1 {
        fill: #252f4f;
      }

      .cls-2 {
        fill: #98c454;
      }
    </style>
  </defs>
  <g id="_Слой_1" data-name="Слой 1">
    <g>
      <path class="cls-2" d="M352.51,665.1c-1.13-1-2.75-2.25-5-3.62-2.12-1.25-3.87-2.63-5.25-3.87-5.25-5.75-7.87-21.87-7.87-48.25,0-14.12-.25-46-.75-95.5-.38-49.62-.62-77.25-.62-83,0-47.5-13-82.37-39-104.62-20-17.12-47.5-27.62-82.62-31.5-6.12,5.88-12.5,11.5-18.87,16.75,14.37,3.25,24.62,11.75,30.5,25.25,7.63,17.87,11.5,46.12,11.5,84.87v10.62c-7.87,6.13-22.12,12.12-42.62,17.87-20.37,5.75-41.12,11.37-62.12,16.87-20.87,5.5-41.62,12.87-62,22.12-20.5,9.25-37,22.87-49.62,40.87C5.65,548.11-.47,569.86.03,595.48c.88,26.87,11.25,48.75,31.37,65.75,20,16.87,48.12,25.37,84.25,25.37,26,0,50-5.88,72-17.75,22-12,38.37-28.75,48.87-50.25,1.75,9.62,4.62,18.12,8.62,25.37,4,7.25,9,13,15.25,17.25,6.12,4.13,11.62,7.5,16.5,9.88,4.75,2.37,11.63,4.12,20.5,5,8.75.88,14.75,1.37,18.12,1.62,3.25.25,9.37.38,18.12.38h7.25c8.87,0,13.25-2.88,13.25-8.62,0-1.75-.5-3.25-1.62-4.38ZM233.89,560.48c0,18.5-6.75,34.62-20.12,48.5-13.5,13.87-31.37,20.87-53.87,20.87-15.87.38-29.37-3.75-40.62-12.62-11.25-8.75-17.25-20.87-18.12-36.37-1.37-18,3.5-34,14.5-47.87,11-13.87,23.25-24.12,36.62-30.75,13.5-6.63,29.12-13.62,47-21.12,17.75-7.5,29.62-13.12,35.25-17.12l-.63,96.5Z"/>
      <path class="cls-1" d="M375.73,65.82c.88,11.63-2.95,22.82-11.49,33.28-4.86,5.89-11.19,11.34-18.85,16.05-16.79,10.31-29.3,22.53-38.14,37.11.29.59.74,1.03,1.03,1.77,8.54,16.2,2.36,36.37-13.99,45.06-12.52,6.48-27.24,4.42-37.4-4.42-26.52,104.86-197.66,160.26-206.34,164.38-10.01,4.71-18.99-8.39-10.9-16.05,5.45-5.3,58.95-38.93,77.8-57.49.29-.29.74-.74,1.03-1.03-1.18.59-2.5,1.03-3.83,1.33-10.01,3.98-20.47,6.33-30.92,7.07-28.56,2.36-58.01-6.63-81.13-26.95l15.17-17.37c22.23-25.33,53.74-38.14,85.11-37.4-16.05-69.2,9.28-144.3,70.23-188.76L203.9,0c39.31,53.89,44.61,122.06,20.17,179.34,16.05-16.2,29.01-29.15,35.19-35.34,4.12-4.12,9.13-7.07,14.87-8.25,7.36-1.47,12.81.74,17.96,3.09,3.97,1.77,7.66,4.42,10.9,7.66,9.28-14.43,21.94-26.65,38.87-36.96,7.07-4.42,12.81-9.28,17.23-14.58,7.51-9.28,10.75-18.7,10.01-28.71-.15-1.77,1.18-3.24,2.8-3.53,1.47-.15,2.8.59,3.53,1.77.15.44.29.88.29,1.33Z"/>
    </g>
  </g>
</svg>